<svg height="512" viewBox="0 0 64 64" width="512" xmlns="http://www.w3.org/2000/svg"><g id="Blue"><path d="m57 3a4 4 0 0 0 -4 4v6h8v-6a4 4 0 0 0 -4-4z" fill="#cdeef6"/><path d="m21 3a4 4 0 0 0 -4 4v20h14v32h22v-52a4 4 0 0 1 4-4z" fill="#cdeef6"/><path d="m3 27h28v34h-28z" fill="#7cb8eb"/><path d="m7 31h20v6h-20z" fill="#fff"/><path d="m7 41h10v4h-10z" fill="#cdeef6"/><path d="m7 49h4v4h-4z" fill="#cdeef6"/><path d="m11 49h4v4h-4z" fill="#cdeef6"/><path d="m19 49h4v4h-4z" fill="#cdeef6"/><path d="m15 49h4v4h-4z" fill="#cdeef6"/><path d="m7 45h4v4h-4z" fill="#cdeef6"/><path d="m11 45h4v4h-4z" fill="#cdeef6"/><path d="m19 45h4v4h-4z" fill="#cdeef6"/><path d="m23 45h4v4h-4z" fill="#cdeef6"/><path d="m15 45h4v4h-4z" fill="#cdeef6"/><path d="m7 53h4v4h-4z" fill="#cdeef6"/><path d="m11 53h4v4h-4z" fill="#cdeef6"/><path d="m23 49h4v8h-4z" fill="#cdeef6"/><path d="m19 53h4v4h-4z" fill="#cdeef6"/><path d="m15 53h4v4h-4z" fill="#cdeef6"/><path d="m26 40h2v2h-2z" fill="#4f83d1"/><path d="m22 40h2v2h-2z" fill="#4f83d1"/><path d="m26 13h4v10h-4z" fill="#7cb8eb"/><path d="m34 11h4v12h-4z" fill="#7cb8eb"/><path d="m42 15h4v8h-4z" fill="#7cb8eb"/><path d="m50 24h-30v-16h2v14h28z" fill="#4f83d1"/><path d="m35 27h14v6h-14z" fill="#7cb8eb"/><g fill="#4f83d1"><path d="m34 36h7v2h-7z"/><path d="m43 36h7v2h-7z"/><path d="m34 40h4v2h-4z"/><path d="m40 40h10v2h-10z"/><path d="m34 44h8v2h-8z"/><path d="m44 44h6v2h-6z"/><path d="m34 48h4v2h-4z"/><path d="m40 48h10v2h-10z"/><path d="m48 54h2v2h-2z"/><path d="m44 54h2v2h-2z"/><path d="m57 2h-36a5.006 5.006 0 0 0 -5 5v19h-14v36h30v-2h22v-46h8v-7a5.006 5.006 0 0 0 -5-5zm-27 58h-26v-32h26zm22-53v51h-20v-32h-14v-19a3 3 0 0 1 3-3h32a4.98 4.98 0 0 0 -1 3zm8 5h-6v-5a3 3 0 0 1 6 0z"/><path d="m6 38h22v-8h-22zm2-6h18v4h-18z"/><path d="m18 44v-4h-12v18h22v-14zm-8 12h-2v-2h2zm0-4h-2v-2h2zm0-4h-2v-2h2zm4 8h-2v-2h2zm0-4h-2v-2h2zm0-4h-2v-2h2zm-6-4v-2h8v2zm10 12h-2v-2h2zm0-4h-2v-2h2zm0-4h-2v-2h2zm4 8h-2v-2h2zm0-4h-2v-2h2zm0-4h-2v-2h2zm4 8h-2v-6h2zm0-8h-2v-2h2z"/><path d="m26 40h2v2h-2z"/><path d="m22 40h2v2h-2z"/><path d="m20 8v16h30v-2h-3v-8h-6v8h-2v-12h-6v12h-2v-10h-6v10h-3v-14zm23 8h2v6h-2zm-8-4h2v10h-2zm-8 2h2v8h-2z"/><path d="m34 34h16v-8h-16zm2-6h12v4h-12z"/><path d="m34 36h7v2h-7z"/><path d="m43 36h7v2h-7z"/><path d="m34 40h4v2h-4z"/><path d="m40 40h10v2h-10z"/><path d="m34 44h8v2h-8z"/><path d="m44 44h6v2h-6z"/><path d="m34 48h4v2h-4z"/><path d="m40 48h10v2h-10z"/><path d="m48 54h2v2h-2z"/><path d="m44 54h2v2h-2z"/></g></g></svg>