<svg id="Capa_1" enable-background="new 0 0 512 512" height="512" viewBox="0 0 512 512" width="512" xmlns="http://www.w3.org/2000/svg"><g><g><path d="m2.602 462.049v-412.098c0-27.587 22.364-49.951 49.951-49.951h291.487c5.69 0 10.302 4.612 10.302 10.302v435.097l-12.929 16.65z" fill="#8993da"/><path d="m330.406 0v150.709c-38.654 23.592-64.52 66.154-64.52 114.657 0 21.376 5.052 42.272 14.699 61.117l-13.418 40.254c-2.991 8.975-.655 18.869 6.034 25.558 4.76 4.76 11.143 7.316 17.664 7.316 2.642 0 5.307-.42 7.894-1.283l31.647-10.549v24.318h23.935v-401.795c0-5.69-4.612-10.302-10.301-10.302z" fill="#707dd3"/><path d="m354.341 445.399-12.929 16.65 12.929 16.645v23.004c0 5.69-4.612 10.302-10.302 10.302h-290.659c-27.393 0-50.309-21.709-50.767-49.098-.468-27.98 22.063-50.809 49.936-50.809h301.792z" fill="#5766cb"/><path d="m354.341 445.398h-301.788c-9.181 0-16.65 7.47-16.65 16.65 0 9.181 7.47 16.65 16.65 16.65h301.789v-33.3z" fill="#f9f6f9"/></g><g><g><path d="m401.708 156.109c-60.26-.853-110.259 47.916-110.841 108.179-.202 20.926 5.483 40.508 15.494 57.198.916 1.527 1.088 3.388.525 5.077l-12.766 38.298c-1.342 4.027 2.489 7.858 6.515 6.515l38.298-12.766c1.689-.563 3.55-.391 5.077.525 16.69 10.011 36.272 15.696 57.198 15.494 60.263-.582 109.032-50.581 108.179-110.841-.836-59.095-48.584-106.843-107.679-107.679z" fill="#b3e59f"/><path d="m485.265 196.877c.897 6.159 1.37 12.455 1.37 18.863 0 71.662-58.094 129.756-129.756 129.756-18.726 0-36.521-3.974-52.599-11.112l-10.159 30.477c-1.342 4.027 2.489 7.858 6.515 6.515l38.299-12.766c1.689-.563 3.55-.391 5.076.525 16.687 10.009 36.265 15.694 57.187 15.494 59.81-.571 108.414-49.847 108.201-109.66-.093-25.779-9.118-49.451-24.134-68.092z" fill="#95d6a4"/></g><g fill="#f9f6f9"><circle cx="400.13" cy="206.049" r="16.65"/><path d="m400.13 341.333c-9.196 0-16.65-7.455-16.65-16.65v-52.033c0-9.196 7.455-16.65 16.65-16.65 9.196 0 16.65 7.455 16.65 16.65v52.033c0 9.196-7.454 16.65-16.65 16.65z"/></g></g><path d="m297.106 46.387h-208.13c-4.267 0-7.726 3.459-7.726 7.726v104.065c0 4.268 3.459 7.726 7.726 7.726h208.13c4.268 0 7.726-3.459 7.726-7.726v-104.064c0-4.268-3.459-7.727-7.726-7.727z" fill="#f9f6f9"/><g><path d="m151.414 349.059h-62.438c-4.267 0-7.726-3.459-7.726-7.726s3.459-7.726 7.726-7.726h62.439c4.267 0 7.726 3.459 7.726 7.726s-3.459 7.726-7.727 7.726z" fill="#ffe07d"/></g><g><path d="m151.414 382.36h-62.438c-4.267 0-7.726-3.459-7.726-7.726 0-4.268 3.459-7.726 7.726-7.726h62.439c4.267 0 7.726 3.459 7.726 7.726s-3.459 7.726-7.727 7.726z" fill="#e7a52e"/></g></g></svg>