<?xml version="1.0" encoding="iso-8859-1"?>
<!-- Generator: Adobe Illustrator 19.0.0, SVG Export Plug-In . SVG Version: 6.00 Build 0)  -->
<svg version="1.1" id="Capa_1" xmlns="http://www.w3.org/2000/svg" xmlns:xlink="http://www.w3.org/1999/xlink" x="0px" y="0px"
	 viewBox="0 0 512 512" style="enable-background:new 0 0 512 512;" xml:space="preserve">
<path style="fill:#DD352E;" d="M119.172,0C80.331,0,48.552,31.779,48.552,70.621v355.805c0.106-0.177,0.159-0.362,0.265-0.53
	c1.395-2.242,3.39-3.196,5.429-3.354c10.814-25.194,35.893-42.955,64.927-42.955h344.276V0H119.172z"/>
<path style="fill:#F2ECBF;" d="M119.172,353.103c-38.841,0-70.621,31.779-70.621,70.621s31.779,70.621,70.621,70.621h61.793v-70.621
	h52.966v70.621h229.517V353.103H119.172z"/>
<path style="fill:#CCC496;" d="M119.172,388.414c-19.474,0-35.31,15.837-35.31,35.31c0,19.474,15.837,35.31,35.31,35.31h61.793
	v-35.31h52.966v35.31h229.517v-70.621H119.172z"/>
<g>
	<path style="fill:#ADA477;" d="M180.966,432.552h-61.793c-4.873,0-8.828-3.946-8.828-8.828c0-4.882,3.955-8.828,8.828-8.828h61.793
		c4.873,0,8.828,3.946,8.828,8.828C189.793,428.606,185.838,432.552,180.966,432.552z"/>
	<path style="fill:#ADA477;" d="M286.897,432.552h-52.966c-4.873,0-8.828-3.946-8.828-8.828c0-4.882,3.955-8.828,8.828-8.828h52.966
		c4.873,0,8.828,3.946,8.828,8.828C295.724,428.606,291.769,432.552,286.897,432.552z"/>
</g>
<path style="fill:#B02721;" d="M110.345,0.618c-34.71,4.387-61.793,34.154-61.793,70.003v353.103
	c0-35.849,27.083-65.677,61.793-70.065V0.618z"/>
<g>
	<path style="fill:#911C1C;" d="M48.552,131.178v54.201c0-35.849,27.083-65.615,61.793-70.003V61.175
		C75.635,65.562,48.552,95.329,48.552,131.178z"/>
	<path style="fill:#911C1C;" d="M48.552,273.037v54.201c0-35.849,27.083-65.615,61.793-70.003v-54.201
		C75.635,207.422,48.552,237.188,48.552,273.037z"/>
</g>
<polygon style="fill:#366DB6;" points="233.931,512 207.448,485.517 180.966,512 180.966,414.897 233.931,414.897 "/>
<path style="fill:#ADA477;" d="M463.448,414.897H419.31c-4.873,0-8.828,3.946-8.828,8.828c0,4.882,3.955,8.828,8.828,8.828h44.138
	V414.897z"/>
<path style="fill:#EBBA16;" d="M357.517,123.586c0-41.71-36.158-74.973-78.839-70.153c-31.744,3.584-57.768,29.184-61.802,60.875
	c-3.372,26.439,7.901,50.441,26.792,65.086c10.152,7.857,16.746,19.438,16.746,32.283v9.013h52.966v-7.998
	c0-12.57,5.376-24.876,15.475-32.353C346.244,167.495,357.517,146.865,357.517,123.586z"/>
<path style="fill:#E7ECED;" d="M286.897,308.966L286.897,308.966c-14.627,0-26.483-11.855-26.483-26.483V256h52.966v26.483
	C313.379,297.11,301.524,308.966,286.897,308.966z"/>
<g>
	<path style="fill:#ED8A19;" d="M286.897,229.517c-4.873,0-8.828-3.946-8.828-8.828v-70.621c0-4.882,3.955-8.828,8.828-8.828
		s8.828,3.946,8.828,8.828v70.621C295.724,225.571,291.769,229.517,286.897,229.517z"/>
	<path style="fill:#ED8A19;" d="M286.897,158.897c-4.873,0-8.828-3.946-8.828-8.828c0-9.737-7.918-17.655-17.655-17.655
		c-4.873,0-8.828-3.946-8.828-8.828s3.955-8.828,8.828-8.828c19.474,0,35.31,15.837,35.31,35.31
		C295.724,154.951,291.769,158.897,286.897,158.897z"/>
	<path style="fill:#ED8A19;" d="M286.897,158.897c-4.873,0-8.828-3.946-8.828-8.828c0-19.474,15.837-35.31,35.31-35.31
		c4.873,0,8.828,3.946,8.828,8.828s-3.955,8.828-8.828,8.828c-9.737,0-17.655,7.918-17.655,17.655
		C295.724,154.951,291.769,158.897,286.897,158.897z"/>
	<path style="fill:#ED8A19;" d="M304.552,176.552h-35.31c-4.873,0-8.828-3.946-8.828-8.828s3.955-8.828,8.828-8.828h35.31
		c4.873,0,8.828,3.946,8.828,8.828S309.425,176.552,304.552,176.552z"/>
</g>
<rect x="242.759" y="220.69" style="fill:#AFB6BB;" width="88.276" height="35.31"/>
<g>
</g>
<g>
</g>
<g>
</g>
<g>
</g>
<g>
</g>
<g>
</g>
<g>
</g>
<g>
</g>
<g>
</g>
<g>
</g>
<g>
</g>
<g>
</g>
<g>
</g>
<g>
</g>
<g>
</g>
</svg>
