<svg id="_x31__x2C_5" enable-background="new 0 0 24 24" height="512" viewBox="0 0 24 24" width="512" xmlns="http://www.w3.org/2000/svg"><path d="m6 22c-.414 0-.75-.336-.75-.75v-.929c0-.414.336-.75.75-.75s.75.336.75.75v.929c0 .414-.336.75-.75.75z"/><path d="m6.208 21.071h-1.458c-.414 0-.75-.336-.75-.75s.336-.75.75-.75h1.458c.138 0 .292-.168.292-.411s-.154-.41-.292-.41h-.416c-.988 0-1.792-.857-1.792-1.911s.804-1.911 1.792-1.911h1.458c.414 0 .75.336.75.75s-.336.75-.75.75h-1.458c-.138 0-.292.168-.292.411s.154.411.292.411h.417c.987 0 1.791.857 1.791 1.911s-.804 1.91-1.792 1.91z"/><path d="m6 16.429c-.414 0-.75-.336-.75-.75v-.929c0-.414.336-.75.75-.75s.75.336.75.75v.929c0 .414-.336.75-.75.75z"/><path d="m6 24c-3.309 0-6-2.691-6-6s2.691-6 6-6 6 2.691 6 6-2.691 6-6 6zm0-10.5c-2.481 0-4.5 2.019-4.5 4.5s2.019 4.5 4.5 4.5 4.5-2.019 4.5-4.5-2.019-4.5-4.5-4.5z"/><path d="m20 4c-1.103 0-2-.897-2-2s.897-2 2-2 2 .897 2 2-.897 2-2 2zm0-2.5c-.276 0-.5.224-.5.5s.224.5.5.5.5-.224.5-.5-.224-.5-.5-.5z"/><path d="m23.25 9c-.414 0-.75-.336-.75-.75v-.833c0-.505-.497-.917-1.107-.917h-2.786c-.61 0-1.107.411-1.107.917v.833c0 .414-.336.75-.75.75s-.75-.336-.75-.75v-.833c0-1.333 1.169-2.417 2.607-2.417h2.786c1.438 0 2.607 1.084 2.607 2.417v.833c0 .414-.336.75-.75.75z"/><path d="m16.25 24c-.211 0-.421-.089-.57-.262l-1.5-1.75c-.241-.281-.241-.695 0-.977l1.5-1.75c.269-.315.743-.352 1.058-.081.314.27.351.743.081 1.058l-1.081 1.262 1.082 1.262c.27.314.233.788-.081 1.058-.142.12-.316.18-.489.18z"/><path d="m18.25 22.25h-3c-.414 0-.75-.336-.75-.75s.336-.75.75-.75h3c.689 0 1.25-.561 1.25-1.25v-6.5c0-.414.336-.75.75-.75s.75.336.75.75v6.5c0 1.517-1.233 2.75-2.75 2.75z"/><path d="m10.75 5c-.173 0-.346-.059-.488-.181-.314-.27-.351-.743-.081-1.058l1.081-1.261-1.082-1.262c-.27-.314-.233-.788.081-1.058.315-.269.788-.232 1.058.081l1.5 1.75c.241.281.241.695 0 .977l-1.5 1.75c-.148.173-.358.262-.569.262z"/><path d="m3.75 9c-.414 0-.75-.336-.75-.75v-3.75c0-1.517 1.233-2.75 2.75-2.75h6c.414 0 .75.336.75.75s-.336.75-.75.75h-6c-.689 0-1.25.561-1.25 1.25v3.75c0 .414-.336.75-.75.75z"/></svg>