<svg id="Layer_5" enable-background="new 0 0 62 62" height="512" viewBox="0 0 62 62" width="512" xmlns="http://www.w3.org/2000/svg"><g><path d="m47 26c6.065 0 11-4.935 11-11s-4.935-11-11-11-11 4.935-11 11 4.935 11 11 11zm0-20c4.962 0 9 4.037 9 9s-4.038 9-9 9-9-4.037-9-9 4.038-9 9-9z"/><path d="m48 18h-2c-.551 0-1-.448-1-1h-2c0 1.654 1.346 3 3 3v2h2v-2c1.654 0 3-1.346 3-3s-1.346-3-3-3h-2c-.551 0-1-.448-1-1s.449-1 1-1h2c.551 0 1 .448 1 1h2c0-1.654-1.346-3-3-3v-2h-2v2c-1.654 0-3 1.346-3 3s1.346 3 3 3h2c.551 0 1 .448 1 1s-.449 1-1 1z"/><path d="m17.789 45.658.105-.211-1.789-.895-.105.212c-.381.762-1.147 1.236-2 1.236s-1.619-.474-2-1.236l-.105-.211-1.789.895.105.211c.722 1.444 2.174 2.341 3.789 2.341s3.067-.897 3.789-2.342z"/><path d="m18 40c.551 0 1 .448 1 1h2c0-1.654-1.346-3-3-3s-3 1.346-3 3h2c0-.552.449-1 1-1z"/><path d="m11 41h2c0-1.654-1.346-3-3-3s-3 1.346-3 3h2c0-.552.449-1 1-1s1 .448 1 1z"/><path d="m18.83 51.132c2.091-.989 3.739-2.756 4.571-4.93 2.347 1.173 4.957 1.798 7.599 1.798 9.374 0 17-7.626 17-17 0-.35-.011-.7-.033-1.049 7.82-.503 14.033-7.006 14.033-14.951 0-8.271-6.729-15-15-15-7.944 0-14.448 6.212-14.951 14.032-.349-.021-.699-.032-1.049-.032-6.733 0-12.731 3.907-15.483 10h-3.045c-3.013 0-5.734 1.606-7.19 4.219-3.221 1.444-5.282 4.611-5.282 8.208 0 .936.129 1.867.348 2.777-.217.559-.348 1.161-.348 1.796 0 2.588 1.984 4.698 4.507 4.95.798 2.289 2.492 4.155 4.663 5.182-3.647 1.793-6.17 5.537-6.17 9.868v1h22v-1c0-4.331-2.523-8.075-6.17-9.868zm-7.631 3.256-.938-1.564c1.015-.466 2.13-.747 3.305-.803zm2.801.026.057.057.79 5.529h-1.694l.79-5.528zm.435-2.393c1.175.056 2.29.337 3.305.803l-.938 1.564zm9.565-9.021v-4.816c1.161.414 2 1.514 2 2.816 0 1.317-.859 2.427-2.042 2.829.025-.274.042-.549.042-.829zm-6.325-18.883c.02-.04.043-.078.063-.117h5.045c-.139.593-.263 1.202-.367 1.833-1.41-.888-3.016-1.487-4.741-1.716zm7.168-.117h10.186c.77 1.022 1.661 1.945 2.663 2.741.151 1.06.236 2.151.271 3.259h-11.543c-.589-1.026-1.327-1.954-2.184-2.759.143-1.137.346-2.224.607-3.241zm21.118 5.947c.001.018.004.035.005.053h-6.003c-.018-.607-.041-1.21-.092-1.806 1.833.994 3.899 1.602 6.09 1.753zm-.012 2.053c-.143 2.155-.732 4.188-1.693 6h-5.034c.43-1.84.689-3.861.752-6zm-7.973 0c-.07 2.142-.354 4.179-.816 6h-9.354c.124-.692.194-1.394.194-2.1 0-1.367-.244-2.676-.67-3.9zm-12.113 13.088c1.288-.906 2.137-2.397 2.137-4.088 0-.342-.035-.677-.101-1h8.647c-1.292 3.613-3.314 6-5.546 6-1.758 0-3.499-.317-5.137-.912zm10.235.001c1.038-1.327 1.908-3.066 2.566-5.089h4.308c-1.737 2.304-4.115 4.087-6.874 5.089zm10.902-43.089c7.168 0 13 5.832 13 13s-5.832 13-13 13-13-5.832-13-13 5.832-13 13-13zm-14.947 14.039c.148 2.14.736 4.159 1.691 5.961h-8.29c1.315-3.635 3.375-6 5.546-6 .351 0 .703.015 1.053.039zm-6.126.845c-1.045 1.326-1.932 3.063-2.598 5.116h-4.329c1.764-2.36 4.172-4.132 6.927-5.116zm-19.555 13.045.353-.142.17-.34c1.063-2.126 3.2-3.447 5.577-3.447h3.627c5.46 0 9.901 4.441 9.901 9.9 0 .356-.039.709-.077 1.061-.737-.535-1.624-.862-2.586-.928-4.041-2.634-8.717-4.033-13.548-4.033h-1.51l-.228.684c-.519 1.558-1.752 2.8-3.302 3.342-1.013.051-1.943.399-2.71.968-.011-.204-.039-.402-.039-.609 0-2.86 1.716-5.395 4.372-6.456zm-4.372 11.071c0-1.302.839-2.402 2-2.816v4.816c0 .28.017.555.042.829-1.183-.402-2.042-1.512-2.042-2.829zm11 9c-3.86 0-7-3.141-7-7v-5.318c1.629-.735 2.947-2.053 3.682-3.682h.107c4.342 0 8.553 1.224 12.211 3.543v5.457c0 3.859-3.14 7-7 7zm-4.456 3.851 2.257 3.762.785-.785-.453 3.172h-6.078c.278-2.502 1.587-4.695 3.489-6.149zm8.323 6.149-.453-3.172.785.785 2.257-3.762c1.902 1.455 3.211 3.648 3.489 6.15z"/><path d="m48 50h-17v2h19v-2.233l7.056 4.233-7.056 4.233v-2.233h-19v2h17v3.767l12.944-7.767-12.944-7.767z"/><path d="m27 50h2v2h-2z"/><path d="m14 12h15v-2h-17v2.233l-7.056-4.233 7.056-4.233v2.233h17v-2h-15v-3.767l-12.944 7.767 12.944 7.767z"/><path d="m31 4h2v2h-2z"/></g></svg>